<?xml version="1.0" encoding="utf-8"?>
<!-- Generator: Adobe Illustrator 24.1.1, SVG Export Plug-In . SVG Version: 6.00 Build 0)  -->
<svg version="1.1" id="Layer_1" xmlns="http://www.w3.org/2000/svg" xmlns:xlink="http://www.w3.org/1999/xlink" x="0px" y="0px"
	 viewBox="0 0 500 500" style="enable-background:new 0 0 500 500;" xml:space="preserve">
<style type="text/css">
	.st0{fill:#E6E6E6;}
	.st1{fill:none;stroke:#F2CAC2;stroke-width:15;stroke-linecap:round;stroke-miterlimit:10;}
	.st2{fill:#F2F2F2;}
	.st3{fill:#F2DEDA;}
	.st4{fill:#F2CAC2;}
	.st5{fill:#999999;}
	.st6{fill:#FFFFFF;}
	.st7{fill:#FF957D;}
	.st8{fill:none;stroke:#000000;stroke-width:2;stroke-linecap:square;stroke-miterlimit:10;}
	.st9{fill:none;stroke:#FF957D;stroke-width:7;stroke-linecap:round;stroke-miterlimit:10;}
	.st10{fill:none;stroke:#000000;stroke-width:3;stroke-linecap:round;stroke-miterlimit:10;}
</style>
<path id="left-foot" class="st0" d="M156.03,403.25c-11.27,8.06-20.19,32.73-22.78,40.51l6.73,0.35l-5.43,5.14l2.65,4.03
	l54.24-49.49C191.44,403.78,199.33,372.29,156.03,403.25z"/>
<path id="right-foot" class="st0" d="M342.14,399.41c15.57,5.58,34.35,34.83,34.35,34.83l-0.77,2.44l-5.92-0.2l5.02,3.06l-0.91,2.86
	l-65.68-32.82C308.22,409.58,292.04,381.44,342.14,399.41z"/>
<path id="tail" class="st1" d="M331.38,351.4c0,0,45.97-1.17,40.07-102.27s89.08-101.05,88.06-54.61"/>
<path class="st2" d="M236.24,192.95c27.4-10.32,82.02,9.26,92.51,46.88c10.49,37.62,20.12,156.69,20.12,156.69l-93.03,9.59
	l3.86,9.79l-5.91-7.84l-0.56,7.84l-2.94-8.13l-5.91,4.89l3.91-6.29l-96.21-3.9C152.09,402.47,128.51,233.53,236.24,192.95z"/>
<path class="st3" d="M191.06,404.1c0,0,3.03-48.67,64.13-52.5s65.43,47.96,65.43,47.96l-69,7L191.06,404.1z"/>
<path id="right-hand" class="st0" d="M250.19,322.98l-8.18,0.27c-1.99-11.04,10.56-13.7,15.65-18.16
	c6.02-5.27,45.75-53.5,52.51-55.58l17.88,0.42c0,0,9.78,7.94,9.51,14.09c-0.71,16.59-22.71,50.37-42,59.03
	c-20.21,9.06-37.45,14.06-42.65,11.88l3.04-7.92l-10.78,2.54L250.19,322.98z"/>
<path class="st2" d="M388.94,138.97c0.74-1.89,2.93-28.46,2.93-28.46l-10-2l9.77-5.05c0,0-37.51-36.26-72.13-10.68
	s-29.02,55.53-29.02,55.53s21.16,42.39,49.7,29.3S383.14,153.69,388.94,138.97z"/>
<path class="st4" d="M381.46,148.21c1.2-2.33,5.18-29.08,5.18-29.08s-27.95-33.05-58.65-14.8s-28.56,43.42-28.56,43.42
	s13.95,36.75,38.59,28.31C362.67,167.63,375.46,159.87,381.46,148.21z"/>
<path class="st2" d="M215.87,44.52c1.8-2.6,28-22,28-22s51,11,49,54s-30,55-30,55s-47,6-52-25S206.87,57.52,215.87,44.52z"/>
<path class="st4" d="M212.36,55.87c1.27-2.3,21.29-20.48,21.29-20.48s43.01,4.85,44.93,40.51c1.92,35.66-20.2,47.89-20.2,47.89
	s-38.3,8.85-45-16.32C206.68,82.29,206.01,67.35,212.36,55.87z"/>
<path class="st0" d="M187.5,198.07c0,0-3.41,47.85,68.58,48.47s67.29-25.04,67.29-25.04l-9.13-3.69L187.5,198.07z"/>
<path class="st2" d="M105.44,127.45c0,0,85.97,116.17,154.03,116.87c68.06,0.7,72.55-14.46,72.55-14.46l-12.15-63.63
	c0,0-6.38-40.81-57.52-44.08S105.44,127.45,105.44,127.45z"/>
<path class="st5" d="M109.89,131.93l-13.23-1.2c-4.79-0.44-8.32-4.67-7.89-9.47l0.36-4c0.36-4,3.9-6.94,7.89-6.58l7.4,0.67
	c4.02,0.37,6.98,3.92,6.62,7.94L109.89,131.93z"/>
<ellipse transform="matrix(0.4677 -0.8839 0.8839 0.4677 -45.0648 155.4514)" class="st6" cx="106.53" cy="115.14" rx="1.34" ry="3.02"/>
<ellipse id="right-eye" transform="matrix(0.2144 -0.9768 0.9768 0.2144 429.9861 498.6179)" cx="524.95" cy="-17.98" rx="11.5" ry="7.5"/>
<ellipse id="left-eye" transform="matrix(0.4058 -0.914 0.914 0.4058 320.7934 419.4299)" cx="482.95" cy="-36.98" rx="11.5" ry="7.5"/>
<g>
	<path id="mouth" class="st7" d="M555.69,98.75l66.23-2.26c0,0,9.17,31.57-23.97,33.7C564.81,132.32,555.69,98.75,555.69,98.75z"/>
	<polygon id="tooth" class="st6" points="576.98,97.64 607.98,96.64 598.98,114.64 580.98,115.64 	"/>
</g>
<circle class="st4" cx="283.37" cy="203.02" r="8.5"/>
<g>
	<line class="st8" x1="281.5" y1="208.36" x2="356.05" y2="249.76"/>
	<line class="st8" x1="283.86" y1="202.81" x2="372.21" y2="240.07"/>
	<line class="st8" x1="286.01" y1="198.8" x2="369.43" y2="224.27"/>
</g>
<path class="st9" d="M217.11,182.99c0,0-3.84,19.61,12.95,26.18s23.28-9.63,23.28-9.63"/>
<path class="st10" d="M264.11,163.11c0,0,1.92-16.75,10.78-14.47c8.86,2.28,6.14,18.45,6.14,18.45"/>
<path class="st10" d="M232.62,148.47c0,0,1.92-16.75,10.78-14.47c8.86,2.28,6.14,18.45,6.14,18.45"/>
<path id="left-hand" class="st0" d="M227.01,340.24l-5.94-8.27l8.94,3.69c2.86-9.39-7.86-14.59-11.61-19.84
	c-4.65-6.5-31.79-67.64-31.79-67.64l-25.84,4.62c0,0-12.48,43.95,16.63,71.84c30.94,29.64,43.81,21.71,43.81,21.71l-3.62-8.13
	L227.01,340.24z"/>
</svg>
