<?xml version="1.0" encoding="utf-8"?>
<!-- Generator: Adobe Illustrator 24.1.1, SVG Export Plug-In . SVG Version: 6.00 Build 0)  -->
<svg version="1.1" id="Layer_1" xmlns="http://www.w3.org/2000/svg" xmlns:xlink="http://www.w3.org/1999/xlink" x="0px" y="0px"
	 viewBox="0 0 500 500" style="enable-background:new 0 0 500 500;" xml:space="preserve">
<style type="text/css">
	.st0{fill:#E6E6E6;}
	.st1{fill:none;stroke:#F2CAC2;stroke-width:15;stroke-linecap:round;stroke-miterlimit:10;}
	.st2{fill:#F2F2F2;}
	.st3{fill:#F2DEDA;}
	.st4{fill:#F2CAC2;}
	.st5{fill:#999999;}
	.st6{fill:#FFFFFF;}
	.st7{fill:#FF957D;}
	.st8{fill:none;stroke:#000000;stroke-width:2;stroke-linecap:square;stroke-miterlimit:10;}
</style>
<g>
	<path id="left-foot" class="st0" d="M156.45,392.14c-13.83,0.85-34.48,17.04-40.8,22.26l5.51,3.87l-7.33,1.47l0.11,4.82
		l72.23-13.18C186.18,411.37,209.58,388.86,156.45,392.14z"/>
	<path id="right-foot" class="st0" d="M350.65,389.92c16.41,2.08,41.08,26.56,41.08,26.56l-0.22,2.55l-5.82,1.09l5.56,1.9
		l-0.26,2.99l-71.23-17.8C319.75,407.2,297.85,383.23,350.65,389.92z"/>
	<path id="left-hand" class="st0" d="M103.24,304.75l9.06-4.64l-9.63-0.8c1.74-9.66,13.65-9.39,19.39-12.34
		c7.11-3.66,59.18-45.64,59.18-45.64l20.88,15.91c0,0-8.98,44.8-47.61,56.31c-41.06,12.23-48.89-0.71-48.89-0.71l6.94-5.57
		L103.24,304.75z"/>
	<path id="tail" class="st1" d="M331.38,351.4c0,0,45.97-1.17,40.07-102.27s89.08-101.05,88.06-54.61"/>
	<g id="torso">
		<path class="st2" d="M236.24,192.95c27.4-10.32,82.02,9.26,92.51,46.88c10.49,37.62,20.12,156.69,20.12,156.69l-93.03,9.59
			l3.86,9.79l-5.91-7.84l-0.56,7.84l-2.94-8.13l-5.91,4.89l3.91-6.29l-96.21-3.9C152.09,402.47,128.51,233.53,236.24,192.95z"/>
		<path class="st3" d="M191.06,404.1c0,0,3.03-48.67,64.13-52.5s65.43,47.96,65.43,47.96l-69,7L191.06,404.1z"/>
	</g>
	<path id="right-hand" class="st0" d="M299.24,337.52l-7.1,4.06c-6.92-8.83,2.92-17.04,5.34-23.37c2.85-7.47,15.4-68.69,20.4-73.69
		l16-8c0,0,12.35,2.44,15,8c7.14,14.99,3.5,55.15-9.5,71.82c-13.62,17.46-26.52,29.95-32.13,30.46l-1.02-8.43l-8.34,7.29
		L299.24,337.52z"/>
	<g id="head-all">
		<g id="right-ear">
			<path class="st2" d="M388.94,138.97c0.74-1.89,2.93-28.46,2.93-28.46l-10-2l9.77-5.05c0,0-37.51-36.26-72.13-10.68
				s-29.02,55.53-29.02,55.53s21.16,42.39,49.7,29.3S383.14,153.69,388.94,138.97z"/>
			<path class="st4" d="M381.46,148.21c1.2-2.33,5.18-29.08,5.18-29.08s-27.95-33.05-58.65-14.8s-28.56,43.42-28.56,43.42
				s13.95,36.75,38.59,28.31C362.67,167.63,375.46,159.87,381.46,148.21z"/>
		</g>
		<g id="left-ear">
			<path class="st2" d="M215.87,44.52c1.8-2.6,28-22,28-22s51,11,49,54s-30,55-30,55s-47,6-52-25S206.87,57.52,215.87,44.52z"/>
			<path class="st4" d="M212.36,55.87c1.27-2.3,21.29-20.48,21.29-20.48s43.01,4.85,44.93,40.51c1.92,35.66-20.2,47.89-20.2,47.89
				s-38.3,8.85-45-16.32C206.68,82.29,206.01,67.35,212.36,55.87z"/>
		</g>
		<g id="head">
			<path class="st0" d="M187.5,198.07c0,0-3.41,47.85,68.58,48.47s67.29-25.04,67.29-25.04l-9.13-3.69L187.5,198.07z"/>
			<path class="st2" d="M97.95,124.04c0,0,85.97,116.17,154.03,116.87c68.06,0.7,72.55-14.46,72.55-14.46l-12.15-63.63
				c0,0-6.38-40.81-57.52-44.08S97.95,124.04,97.95,124.04z"/>
		</g>
		<g id="nose">
			<path class="st5" d="M109.89,131.93l-13.23-1.2c-4.79-0.44-8.32-4.67-7.89-9.47l0.36-4c0.36-4,3.9-6.94,7.89-6.58l7.4,0.67
				c4.02,0.37,6.98,3.92,6.62,7.94L109.89,131.93z"/>
			
				<ellipse transform="matrix(0.4677 -0.8839 0.8839 0.4677 -45.0648 155.4514)" class="st6" cx="106.53" cy="115.14" rx="1.34" ry="3.02"/>
		</g>
		<g id="eyes">
			
				<ellipse id="right-eye" transform="matrix(0.2144 -0.9768 0.9768 0.2144 62.8083 402.1206)" cx="281.37" cy="162.02" rx="11.5" ry="7.5"/>
			
				<ellipse id="left-eye" transform="matrix(0.4058 -0.914 0.914 0.4058 11.5328 303.7715)" cx="239.37" cy="143.02" rx="11.5" ry="7.5"/>
		</g>
		<path id="mouth" class="st7" d="M202.59,200.62l66.23-2.26c0,0,9.17,31.57-23.97,33.7C211.71,234.19,202.59,200.62,202.59,200.62z
			"/>
		<polygon id="tooth" class="st6" points="223.87,199.52 254.87,198.52 245.87,216.52 227.87,217.52 		"/>
		<g id="whiskers">
			<circle class="st4" cx="283.37" cy="203.02" r="8.5"/>
			<line class="st8" x1="282.78" y1="208.88" x2="366.29" y2="226.15"/>
			<line class="st8" x1="283.37" y1="202.88" x2="378.82" y2="212.08"/>
			<line class="st8" x1="284.22" y1="198.41" x2="371.45" y2="197.84"/>
		</g>
	</g>
</g>
</svg>
